<?xml version='1.0' encoding='iso-8859-1'?>
<!DOCTYPE svg PUBLIC '-//W3C//DTD SVG 1.1//EN' 'http://www.w3.org/Graphics/SVG/1.1/DTD/svg11.dtd'>
<svg version="1.1" xmlns="http://www.w3.org/2000/svg" viewBox="0 0 297 297" xmlns:xlink="http://www.w3.org/1999/xlink" enable-background="new 0 0 297 297">
  <g>
    <path d="m286.479,9.59h-78.85c-5.811,0-10.52,4.71-10.52,10.52 0,26.876-21.807,48.74-48.61,48.74s-48.609-21.865-48.609-48.741c0-5.81-4.711-10.52-10.521-10.52h-78.848c-5.811,0.001-10.521,4.711-10.521,10.52v98.765c0,5.81 4.71,10.521 10.521,10.521h28.9v147.494c0,5.81 4.711,10.521 10.521,10.521h197.114c5.811,0 10.521-4.711 10.521-10.521v-147.494h28.903c5.81,0 10.521-4.711 10.521-10.521v-98.765c-0.001-5.809-4.712-10.519-10.522-10.519zm-132.295,207.397c-1.731,1.11-3.707,1.666-5.683,1.666-1.976,0-3.951-0.556-5.683-1.666-7.644-4.906-45.776-30.669-45.776-56.146 0-17.393 13.902-31.541 30.989-31.541 7.838,0 15.006,2.977 20.47,7.878 5.463-4.901 12.631-7.878 20.468-7.878 17.087,0 30.989,14.148 30.989,31.54 0,25.474-38.131,51.24-45.774,56.147z"/>
    <path d="m168.969,150.341c-5.485,0-9.947,4.711-9.947,10.5 0,5.81-4.711,10.52-10.52,10.52-5.81,0-10.521-4.711-10.521-10.52 0-5.789-4.463-10.5-9.949-10.5-5.486,0-9.949,4.711-9.949,10.501 0,9.088 16.531,24.56 30.419,34.556 13.887-9.997 30.416-25.471 30.416-34.557-0.001-5.789-4.464-10.5-9.949-10.5z"/>
  </g>
</svg>
